:FULLY-SPECIFIED
:FORCE-ALL-JOINTS-BE-3DOF
:DEGREES
544
root 5.81343 16.4234 -4.61778 -117.903 87.6845 -123.509
lfemur -21.4997 -5.55781 -20.7294
ltibia 46.4805 0 0
lfoot -28.215 1.62626 0
ltoes 8.01234 0 0
rfemur -52.6161 -1.36231 11.4383
rtibia 62.4793 0 0
rfoot 7.86582 9.83124 0
rtoes -19.0021 0 0
lowerback 5.71939 -0.726204 -3.31113
upperback 1.22679 -1.06162 1.84214
thorax -1.81306 -0.52615 3.82485
lowerneck -7.43314 -11.5909 -3.03631
upperneck 11.1255 -15.7515 4.0689
head 5.15981 -7.57361 0.625616
lclavicle -8.6233e-16 -3.2871e-15 0
lhumerus -37.5632 -30.9222 102.398
lradius 54.9838 0 0
lwrist 13.8487 0 0
lhand -4.24127 -0.764913 0
lfingers 7.12502 0 0
lthumb 21.4708 27.4602 0
rclavicle -8.6233e-16 -3.2871e-15 0
rhumerus -7.85566 31.7114 -83.1344
rradius 114.574 0 0
rwrist -10.1716 0 0
rhand -10.0434 -16.1319 0
rfingers 7.12502 0 0
rthumb 15.9009 -764.88 0
545
root 5.82446 16.4223 -4.58624 -117.049 87.6744 -122.649
lfemur -21.3894 -5.15683 -20.6829
ltibia 46.4415 0 0
lfoot -28.3047 1.90851 0
ltoes 7.80939 0 0
rfemur -52.4186 -1.61921 11.5481
rtibia 62.2748 0 0
rfoot 7.86294 9.80535 0
rtoes -19.0852 0 0
lowerback 5.68702 -0.739481 -3.37197
upperback 1.24623 -1.08152 1.84854
thorax -1.77161 -0.537097 3.86636
lowerneck -7.38173 -11.6282 -3.05592
upperneck 11.1649 -15.8102 4.1332
head 5.1728 -7.59862 0.643992
lclavicle -8.73198e-16 -3.1115e-15 0
lhumerus -37.2285 -30.8274 101.955
lradius 54.9411 0 0
lwrist 14.1271 0 0
lhand -4.62838 -0.808247 0
lfingers 7.12502 0 0
lthumb 21.0992 27.4589 0
rclavicle -8.73198e-16 -3.1115e-15 0
rhumerus -7.02207 31.3221 -82.8771
rradius 115.061 0 0
rwrist -11.0587 0 0
rhand -10.4649 -16.2199 0
rfingers 7.12502 0 0
rthumb 15.4951 -765 0
546
root 5.83549 16.4213 -4.55466 -116.19 87.6642 -121.783
lfemur -21.279 -4.75529 -20.6364
ltibia 46.4025 0 0
lfoot -28.3946 2.19111 0
ltoes 7.60624 0 0
rfemur -52.2208 -1.8764 11.6582
rtibia 62.07 0 0
rfoot 7.86001 9.7795 0
rtoes -19.1684 0 0
lowerback 5.65458 -0.752781 -3.4329
upperback 1.26568 -1.10144 1.85494
thorax -1.7301 -0.548063 3.9079
lowerneck -7.33026 -11.6656 -3.07554
upperneck 11.2044 -15.869 4.19758
head 5.1858 -7.62364 0.662391
lclavicle -8.84948e-16 -2.93513e-15 0
lhumerus -36.8935 -30.7326 101.512
lradius 54.8984 0 0
lwrist 14.4059 0 0
lhand -5.01595 -0.85163 0
lfingers 7.12502 0 0
lthumb 20.7271 27.4576 0
rclavicle -8.84948e-16 -2.93513e-15 0
rhumerus -6.18765 30.9322 -82.6197
rradius 115.549 0 0
rwrist -11.9466 0 0
rhand -10.8871 -16.3082 0
rfingers 7.12502 0 0
rthumb 15.0888 -765.119 0
547
root 5.84653 16.4202 -4.52307 -115.326 87.6541 -120.913
lfemur -21.1686 -4.35342 -20.5898
ltibia 46.3633 0 0
lfoot -28.4844 2.47388 0
ltoes 7.40302 0 0
rfemur -52.0229 -2.13374 11.7683
rtibia 61.8651 0 0
rfoot 7.85701 9.75372 0
rtoes -19.2517 0 0
lowerback 5.62208 -0.766095 -3.49388
upperback 1.28514 -1.12139 1.86132
thorax -1.68856 -0.55904 3.94946
lowerneck -7.27876 -11.703 -3.09516
upperneck 11.244 -15.9277 4.262
head 5.1988 -7.64867 0.680801
lclavicle -8.97639e-16 -2.75814e-15 0
lhumerus -36.5582 -30.6376 101.068
lradius 54.8556 0 0
lwrist 14.6848 0 0
lhand -5.40372 -0.895036 0
lfingers 7.12502 0 0
lthumb 20.3549 27.4562 0
rclavicle -8.97639e-16 -2.75814e-15 0
rhumerus -5.35289 30.5419 -82.3622
rradius 116.036 0 0
rwrist -12.835 0 0
rhand -11.3097 -16.3965 0
rfingers 7.12502 0 0
rthumb 14.6821 -765.239 0
548
root 5.85755 16.4192 -4.49147 -114.457 87.6439 -120.038
lfemur -21.0582 -3.95146 -20.5432
ltibia 46.3242 0 0
lfoot -28.5742 2.75667 0
ltoes 7.19983 0 0
rfemur -51.825 -2.39106 11.8785
rtibia 61.6602 0 0
rfoot 7.85395 9.72802 0
rtoes -19.3351 0 0
lowerback 5.58955 -0.779417 -3.55488
upperback 1.30458 -1.14135 1.86769
thorax -1.64701 -0.570023 3.99102
lowerneck -7.22725 -11.7404 -3.11476
upperneck 11.2835 -15.9864 4.32642
head 5.2118 -7.67369 0.699213
lclavicle -9.11335e-16 -2.58068e-15 0
lhumerus -36.223 -30.5427 100.624
lradius 54.8128 0 0
lwrist 14.9637 0 0
lhand -5.79149 -0.938441 0
lfingers 7.12502 0 0
lthumb 19.9827 27.4549 0
rclavicle -9.11335e-16 -2.58068e-15 0
rhumerus -4.51827 30.1515 -82.1048
rradius 116.524 0 0
rwrist -13.7232 0 0
rhand -11.7324 -16.4849 0
rfingers 7.12502 0 0
rthumb 14.2753 -765.359 0
549
root 5.86857 16.4181 -4.45991 -113.585 87.6338 -119.159
lfemur -20.9479 -3.54963 -20.4967
ltibia 46.285 0 0
lfoot -28.664 3.0393 0
ltoes 6.9968 0 0
rfemur -51.6271 -2.64822 11.9887
rtibia 61.4555 0 0
rfoot 7.85082 9.70241 0
rtoes -19.4186 0 0
lowerback 5.55701 -0.792738 -3.61587
upperback 1.324 -1.16131 1.87403
thorax -1.60548 -0.581004 4.03254
lowerneck -7.17579 -11.7777 -3.13434
upperneck 11.323 -16.0451 4.3908
head 5.22479 -7.69868 0.717614
lclavicle -9.26093e-16 -2.40291e-15 0
lhumerus -35.8879 -30.4479 100.18
lradius 54.7701 0 0
lwrist 15.2424 0 0
lhand -6.17901 -0.981818 0
lfingers 7.12502 0 0
lthumb 19.6107 27.4535 0
rclavicle -9.26093e-16 -2.40291e-15 0
rhumerus -3.68429 29.7613 -81.8477
rradius 117.011 0 0
rwrist -14.6107 0 0
rhand -12.1549 -16.5734 0
rfingers 7.12502 0 0
rthumb 13.8687 -765.479 0
550
root 5.87957 16.417 -4.42838 -112.709 87.6238 -118.277
lfemur -20.8377 -3.14818 -20.4503
ltibia 46.2459 0 0
lfoot -28.7537 3.3216 0
ltoes 6.79403 0 0
rfemur -51.4295 -2.90505 12.0988
rtibia 61.2509 0 0
rfoot 7.84763 9.67691 0
rtoes -19.502 0 0
lowerback 5.52446 -0.80605 -3.6768
upperback 1.34339 -1.18125 1.88035
thorax -1.56399 -0.591978 4.07401
lowerneck -7.12438 -11.8149 -3.15389
upperneck 11.3624 -16.1037 4.45511
head 5.23776 -7.72363 0.735994
lclavicle -9.41977e-16 -2.22498e-15 0
lhumerus -35.5531 -30.3532 99.7372
lradius 54.7274 0 0
lwrist 15.5208 0 0
lhand -6.56606 -1.02514 0
lfingers 7.12502 0 0
lthumb 19.2391 27.4522 0
rclavicle -9.41977e-16 -2.22498e-15 0
rhumerus -2.85143 29.3713 -81.591
rradius 117.497 0 0
rwrist -15.4971 0 0
rhand -12.5771 -16.6617 0
rfingers 7.12502 0 0
rthumb 13.4624 -765.599 0
